<svg width="24" height="24" viewBox="0 0 24 24" fill="none" xmlns="http://www.w3.org/2000/svg">
<path fill-rule="evenodd" clip-rule="evenodd" d="M8.45092 5.3169C7.58459 6.15095 7 7.41842 7 9.15789C7 10.2331 7.58912 11.6344 8.51427 13.1159C9.41611 14.5602 10.5402 15.9303 11.4065 16.9063C11.7321 17.2733 12.2679 17.2733 12.5936 16.9063C13.4598 15.9303 14.5839 14.5602 15.4857 13.1159C16.4109 11.6344 17 10.2331 17 9.15789C17 7.41842 16.4154 6.15095 15.5491 5.3169C14.675 4.47542 13.4358 4 12 4C10.5642 4 9.32497 4.47542 8.45092 5.3169ZM7.0638 3.8761C8.36132 2.62693 10.122 2 12 2C13.878 2 15.6387 2.62693 16.9362 3.8761C18.2414 5.1327 19 6.94418 19 9.15789C19 10.8263 18.1441 12.6348 17.1821 14.1753C16.1969 15.7531 14.9917 17.2173 14.0894 18.2339C12.968 19.4974 11.032 19.4974 9.91062 18.2339C9.00832 17.2173 7.80314 15.7531 6.81785 14.1753C5.85587 12.6348 5 10.8263 5 9.15789C5 6.94418 5.75856 5.1327 7.0638 3.8761Z" fill="#292929"/>
<path fill-rule="evenodd" clip-rule="evenodd" d="M12 7C11.4477 7 11 7.44772 11 8C11 8.55228 11.4477 9 12 9C12.5523 9 13 8.55228 13 8C13 7.44772 12.5523 7 12 7ZM9 8C9 6.34315 10.3431 5 12 5C13.6569 5 15 6.34315 15 8C15 9.65685 13.6569 11 12 11C10.3431 11 9 9.65685 9 8Z" fill="#292929"/>
<path fill-rule="evenodd" clip-rule="evenodd" d="M8.937 15.1816H9.5V17.1816H9.06378C7.6826 17.3608 6.56283 17.6562 5.81476 17.9966C5.4328 18.1704 5.19796 18.3335 5.07287 18.4575C5.05652 18.4737 5.04324 18.488 5.0325 18.5003C5.06561 18.5387 5.12358 18.5953 5.22292 18.6687C5.50289 18.8756 5.97193 19.104 6.64142 19.3132C7.9685 19.7279 9.86323 19.9999 12 19.9999C14.1368 19.9999 16.0315 19.7279 17.3586 19.3132C18.0281 19.104 18.4971 18.8756 18.7771 18.6687C18.8764 18.5953 18.9344 18.5387 18.9675 18.5003C18.9568 18.488 18.9435 18.4737 18.9271 18.4575C18.802 18.3335 18.5672 18.1704 18.1852 17.9966C17.4372 17.6562 16.3174 17.3608 14.9362 17.1816H14.5V15.1816H15.063L15.1255 15.1895C16.6478 15.3821 18.0058 15.7176 19.0136 16.1762C19.5152 16.4045 19.9806 16.6858 20.3349 17.0369C20.6922 17.391 21 17.8843 21 18.4999C21 19.3113 20.4757 19.9004 19.9656 20.2773C19.4359 20.6687 18.7334 20.979 17.9551 21.2222C16.3868 21.7123 14.2815 21.9999 12 21.9999C9.71849 21.9999 7.61323 21.7123 6.04487 21.2222C5.26665 20.979 4.56412 20.6687 4.03444 20.2773C3.52434 19.9004 3 19.3113 3 18.4999C3 17.8843 3.30777 17.391 3.66506 17.0369C4.01936 16.6858 4.48481 16.4045 4.98637 16.1762C5.99423 15.7176 7.35222 15.3821 8.8745 15.1895L8.937 15.1816Z" fill="#292929"/>
</svg>
